<svg width="68" height="18" viewBox="0 0 68 18" fill="none" xmlns="http://www.w3.org/2000/svg">
<path d="M9.22656 1.17969L16.5391 17H12.7188L11.5234 14.0703H5.3125L4.11719 17H0.296875L7.60938 1.17969H9.22656ZM8.42969 6.5L6.46094 11.3047H10.3984L8.42969 6.5ZM24.6641 4.85938C25.6797 4.85938 26.6016 5.11719 27.4297 5.63281C28.2734 6.13281 28.9375 6.85156 29.4219 7.78906C29.9219 8.72656 30.1719 9.85156 30.1719 11.1641C30.1719 12.4766 29.9219 13.5938 29.4219 14.5156C28.9375 15.4375 28.2891 16.1406 27.4766 16.625C26.6797 17.1094 25.8125 17.3516 24.875 17.3516C24 17.3516 23.2344 17.125 22.5781 16.6719C21.9219 16.2031 21.4219 15.6484 21.0781 15.0078V17H18.1016V0.125H21.0781V6.5C21.5156 6 22.0547 5.60156 22.6953 5.30469C23.3516 5.00781 24.0078 4.85938 24.6641 4.85938ZM24.0547 7.78906C23.4766 7.78906 22.9375 7.92188 22.4375 8.1875C21.9531 8.4375 21.5 8.78906 21.0781 9.24219V10.9297C21.0625 11.6484 21.1953 12.2656 21.4766 12.7812C21.7734 13.2812 22.1562 13.6719 22.625 13.9531C23.0938 14.2188 23.5938 14.3516 24.125 14.3516C25.0156 14.3516 25.7266 14.0469 26.2578 13.4375C26.8047 12.8125 27.0781 12.0547 27.0781 11.1641C27.0781 10.5703 26.9531 10.0234 26.7031 9.52344C26.4531 9.00781 26.1016 8.59375 25.6484 8.28125C25.1953 7.95312 24.6641 7.78906 24.0547 7.78906ZM38.0156 4.85938C39.1719 4.85938 40.2266 5.14062 41.1797 5.70312C42.1328 6.25 42.8984 7 43.4766 7.95312C44.0703 8.89062 44.3672 9.94531 44.3672 11.1172C44.3672 12.2891 44.0703 13.3438 43.4766 14.2812C42.8984 15.2188 42.1328 15.9688 41.1797 16.5312C40.2266 17.0781 39.1719 17.3516 38.0156 17.3516C36.875 17.3516 35.8203 17.0781 34.8516 16.5312C33.8984 15.9688 33.1328 15.2188 32.5547 14.2812C31.9766 13.3438 31.6875 12.2891 31.6875 11.1172C31.6875 9.94531 31.9766 8.89062 32.5547 7.95312C33.1328 7 33.8984 6.25 34.8516 5.70312C35.8203 5.14062 36.875 4.85938 38.0156 4.85938ZM38.0156 7.74219C37.4531 7.74219 36.9297 7.875 36.4453 8.14062C35.9609 8.40625 35.5703 8.78906 35.2734 9.28906C34.9922 9.78906 34.8516 10.3984 34.8516 11.1172C34.8516 11.8359 34.9922 12.4453 35.2734 12.9453C35.5703 13.4453 35.9609 13.8281 36.4453 14.0938C36.9297 14.3438 37.4531 14.4688 38.0156 14.4688C38.5781 14.4688 39.1016 14.3438 39.5859 14.0938C40.0703 13.8281 40.4609 13.4453 40.7578 12.9453C41.0547 12.4453 41.2031 11.8359 41.2031 11.1172C41.2031 10.3984 41.0547 9.78906 40.7578 9.28906C40.4609 8.78906 40.0703 8.40625 39.5859 8.14062C39.1016 7.875 38.5781 7.74219 38.0156 7.74219ZM57.1328 5.16406V12.2188C57.1328 13.2656 56.8984 14.1719 56.4297 14.9375C55.9609 15.6875 55.3203 16.2656 54.5078 16.6719C53.7109 17.0781 52.8047 17.2812 51.7891 17.2812C50.7578 17.2812 49.8359 17.0781 49.0234 16.6719C48.2266 16.2656 47.5938 15.6875 47.125 14.9375C46.6719 14.1719 46.4453 13.2656 46.4453 12.2188V5.16406H49.4453L49.4688 11.6797C49.4688 12.6016 49.6797 13.2891 50.1016 13.7422C50.5234 14.1953 51.0859 14.4219 51.7891 14.4219C52.4766 14.4219 53.0312 14.1953 53.4531 13.7422C53.8906 13.2891 54.1094 12.6016 54.1094 11.6797V5.16406H57.1328ZM64.3203 1.71875V5.16406H67.6016V7.64844H64.3203V12.7578C64.3203 13.2891 64.4375 13.7109 64.6719 14.0234C64.9219 14.3203 65.2891 14.4688 65.7734 14.4688C66.1953 14.4688 66.5547 14.4219 66.8516 14.3281C67.1641 14.2344 67.4531 14.1016 67.7188 13.9297V16.2969C67.4219 16.5938 67.0469 16.8438 66.5938 17.0469C66.1562 17.25 65.6016 17.3516 64.9297 17.3516C63.8672 17.3516 63 17.0156 62.3281 16.3438C61.6719 15.6562 61.3438 14.7188 61.3438 13.5312V7.64844H59.2109V6.125C59.9609 5.85938 60.6484 5.35938 61.2734 4.625C61.9141 3.89062 62.4219 2.92188 62.7969 1.71875H64.3203Z" fill="black"/>
</svg>
