<svg width="51" height="52" viewBox="0 0 51 52" fill="none" xmlns="http://www.w3.org/2000/svg">
<ellipse cx="25.5" cy="25.5004" rx="25.5" ry="25.5004" fill="black"/>
<path d="M51 25.5004C51 22.1786 50.351 18.8888 49.0895 15.8159L25.5 25.5004H51Z" fill="#A92C2C"/>
<path d="M25.5 0C22.1599 -3.98314e-08 18.8523 0.656218 15.7651 1.93137L25.5 25.5004L25.5 0Z" fill="#A92C2C"/>
<path d="M7.46878 7.46891C5.10694 9.83078 3.23212 12.6337 1.95083 15.7183L25.5 25.5004L7.46878 7.46891Z" fill="#A92C2C"/>
<path d="M0 25.5004C-2.92004e-07 28.8406 0.656206 32.1483 1.93134 35.2355L25.5 25.5004L0 25.5004Z" fill="#A92C2C"/>
<path d="M7.46878 43.532C9.83061 45.8938 12.6334 47.7687 15.7181 49.05L25.5 25.5004L7.46878 43.532Z" fill="#A92C2C"/>
<path d="M25.5 51.0009C28.8217 51.0009 32.1115 50.3519 35.1844 49.0903L25.5 25.5004L25.5 51.0009Z" fill="#A92C2C"/>
<path d="M43.5312 43.532C45.8786 41.1845 47.7451 38.4013 49.0258 35.3386L25.5 25.5004L43.5312 43.532Z" fill="#A92C2C"/>
<path d="M43.5312 7.4689C41.1824 5.12003 38.3973 3.25271 35.3324 1.97188L25.5 25.5004L43.5312 7.4689Z" fill="#A92C2C"/>
<line x1="25.4999" y1="51.0024" x2="25.4999" y2="0.000141144" stroke="white" stroke-width="0.573051"/>
<path d="M1.99268 35.1582L49.0895 15.663" stroke="white" stroke-width="0.573051"/>
<line y1="25.5003" x2="51" y2="25.5003" stroke="white" stroke-width="0.573051"/>
<path d="M7.44873 7.44946L43.5499 43.5512" stroke="white" stroke-width="0.573051"/>
<path d="M43.5513 7.44946L7.45014 43.5512" stroke="white" stroke-width="0.573051"/>
<path d="M15.7307 49.0857L35.2685 1.91649" stroke="white" stroke-width="0.573051"/>
<path d="M35.27 49.0857L15.7322 1.91649" stroke="white" stroke-width="0.573051"/>
<path d="M49.0913 35.3384L1.91153 15.8549" stroke="white" stroke-width="0.573051"/>
<path d="M42.6908 25.5008C42.6908 34.9953 34.9941 42.6921 25.4997 42.6921C16.0054 42.6921 8.30874 34.9953 8.30874 25.5008C8.30874 16.0063 16.0054 8.30947 25.4997 8.30947C34.9941 8.30947 42.6908 16.0063 42.6908 25.5008Z" stroke="white" stroke-width="0.573051"/>
<path d="M37.3432 25.4998C37.3432 32.0404 32.0411 37.3427 25.5006 37.3427C18.96 37.3427 13.6579 32.0404 13.6579 25.4998C13.6579 18.9591 18.96 13.6569 25.5006 13.6569C32.0411 13.6569 37.3432 18.9591 37.3432 25.4998Z" fill="black" stroke="white" stroke-width="0.573051"/>
</svg>
