<svg width="292" height="104" viewBox="0 0 292 104" fill="none" xmlns="http://www.w3.org/2000/svg">
<rect x="0.895508" y="0.708252" width="291" height="103" rx="5" fill="#A92C2C"/>
<path d="M106.825 40.6964C108.185 40.6964 109.427 40.8839 110.552 41.2589C111.677 41.6339 112.626 42.0675 113.399 42.5597V47.3761C112.556 46.8605 111.653 46.38 110.692 45.9347C109.731 45.4894 108.642 45.2667 107.423 45.2667C106.813 45.2667 106.204 45.3605 105.595 45.548C105.009 45.7355 104.517 46.0167 104.118 46.3917C103.743 46.7667 103.556 47.2472 103.556 47.8331C103.556 48.6066 103.896 49.1925 104.575 49.5909C105.255 49.9894 106.087 50.3878 107.071 50.7863L109.954 51.9816C111.595 52.6847 112.802 53.5402 113.575 54.548C114.349 55.5558 114.735 56.7042 114.735 57.9933C114.735 59.3995 114.325 60.6417 113.505 61.7198C112.708 62.7745 111.63 63.6066 110.271 64.2159C108.935 64.8253 107.446 65.13 105.806 65.13C104.423 65.13 103.099 64.8956 101.833 64.4269C100.567 63.9581 99.4658 63.3839 98.5283 62.7042V57.8878C99.5596 58.6378 100.696 59.2706 101.938 59.7863C103.181 60.3019 104.505 60.5597 105.911 60.5597C106.896 60.5597 107.739 60.3722 108.442 59.9972C109.146 59.5988 109.497 59.0128 109.497 58.2394C109.497 57.63 109.204 57.1378 108.618 56.7628C108.056 56.3644 107.435 56.0363 106.755 55.7784L103.134 54.3722C101.306 53.6691 100.063 52.755 99.4072 51.63C98.7744 50.4816 98.458 49.2159 98.458 47.8331C98.458 46.4034 98.8447 45.1613 99.6182 44.1066C100.415 43.0284 101.446 42.1964 102.712 41.6105C103.978 41.0011 105.349 40.6964 106.825 40.6964ZM128.72 41.1534C129.821 41.1534 130.899 41.3409 131.954 41.7159C133.009 42.0909 133.958 42.6417 134.802 43.3683C135.669 44.0948 136.349 44.9738 136.841 46.005C137.356 47.0128 137.614 48.173 137.614 49.4855C137.614 51.0792 137.204 52.4972 136.384 53.7394C135.587 54.9581 134.521 55.9191 133.185 56.6222C131.849 57.3253 130.396 57.6769 128.825 57.6769C127.771 57.6769 126.821 57.5714 125.978 57.3605C125.134 57.1495 124.431 56.9034 123.868 56.6222V64.7081H118.981V41.1534H128.72ZM123.868 45.7238V52.6847C124.384 52.8956 125.005 53.0831 125.731 53.2472C126.481 53.3878 127.243 53.4581 128.017 53.4581C129.423 53.4581 130.536 53.0714 131.356 52.298C132.2 51.5011 132.622 50.5636 132.622 49.4855C132.622 48.2433 132.153 47.3058 131.216 46.673C130.278 46.0402 129.177 45.7238 127.911 45.7238H123.868ZM154.692 60.3136V64.7081H141.86V60.3136H145.833V45.548H141.86V41.1534H154.692V45.548H150.72V60.3136H154.692ZM181.649 41.1534V64.8839H179.892L165.935 50.505V64.7081H161.048V40.9777H162.806L176.763 55.5675V41.1534H181.649ZM192.259 41.1534V56.6222H188.321V41.1534H192.259ZM190.29 59.7159C191.063 59.7159 191.72 59.9972 192.259 60.5597C192.821 61.0988 193.103 61.755 193.103 62.5284C193.103 63.3019 192.821 63.9698 192.259 64.5323C191.72 65.0714 191.063 65.3409 190.29 65.3409C189.517 65.3409 188.849 65.0714 188.286 64.5323C187.747 63.9698 187.478 63.3019 187.478 62.5284C187.478 61.755 187.747 61.0988 188.286 60.5597C188.849 59.9972 189.517 59.7159 190.29 59.7159Z" fill="white"/>
</svg>
