<svg width="335" height="27" viewBox="0 0 335 27" fill="none" xmlns="http://www.w3.org/2000/svg">
<path d="M9.80469 2.44531C10.9062 2.44531 11.9844 2.59766 13.0391 2.90234C14.0938 3.20703 15.043 3.67578 15.8867 4.30859C16.7539 4.94141 17.4336 5.73828 17.9258 6.69922C18.4414 7.63672 18.6992 8.76172 18.6992 10.0742C18.6992 11.457 18.3477 12.6523 17.6445 13.6602C16.9648 14.6445 16.0625 15.418 14.9375 15.9805C13.8125 16.5195 12.5938 16.8359 11.2812 16.9297L19.7539 26H13.3203L5.12891 16.3672V26H0.242188V2.44531H9.80469ZM5.12891 7.01562V12.957C5.69141 13.1445 6.3125 13.2969 6.99219 13.4141C7.69531 13.5078 8.39844 13.5547 9.10156 13.5547C10.5078 13.5547 11.6211 13.2734 12.4414 12.7109C13.2852 12.125 13.707 11.3047 13.707 10.25C13.707 9.10156 13.2617 8.28125 12.3711 7.78906C11.5039 7.27344 10.4375 7.01562 9.17188 7.01562H5.12891ZM29.6953 7.78906C31.4297 7.78906 32.918 8.16406 34.1602 8.91406C35.4258 9.66406 36.3867 10.707 37.043 12.043C37.7227 13.3555 38.0625 14.8789 38.0625 16.6133V18.5117H25.1953C25.4297 19.707 26.0156 20.668 26.9531 21.3945C27.8906 22.1211 29.0391 22.4844 30.3984 22.4844C31.6875 22.4844 32.8594 22.2266 33.9141 21.7109C34.9688 21.1953 35.8125 20.668 36.4453 20.1289L36.4102 24.2773C35.8477 24.7695 35.0039 25.2734 33.8789 25.7891C32.7773 26.2812 31.5586 26.5273 30.2227 26.5273C28.4648 26.5273 26.8594 26.1289 25.4062 25.332C23.9766 24.5352 22.8281 23.4453 21.9609 22.0625C21.1172 20.6797 20.6953 19.0977 20.6953 17.3164C20.6953 15.582 21.082 14 21.8555 12.5703C22.6289 11.1406 23.6953 9.99219 25.0547 9.125C26.4141 8.23438 27.9609 7.78906 29.6953 7.78906ZM29.5898 11.6914C28.4883 11.6914 27.5625 12.0312 26.8125 12.7109C26.0625 13.3906 25.5469 14.3047 25.2656 15.4531H33.7734C33.6797 14.1875 33.2109 13.25 32.3672 12.6406C31.5234 12.0078 30.5977 11.6914 29.5898 11.6914ZM47.3711 7.78906C48.4727 7.78906 49.4922 7.95312 50.4297 8.28125C51.3672 8.60938 52.0938 8.98438 52.6094 9.40625V13.3438C52.0469 12.9688 51.3555 12.6055 50.5352 12.2539C49.7383 11.9023 48.9062 11.7266 48.0391 11.7266C47.1953 11.7266 46.5273 11.9141 46.0352 12.2891C45.543 12.6641 45.2969 13.1094 45.2969 13.625C45.2969 14 45.4375 14.3516 45.7188 14.6797C46 14.9844 46.5391 15.2539 47.3359 15.4883L49.3398 16.1562C52.0352 16.9531 53.3828 18.5117 53.3828 20.832C53.3828 21.9336 53.0664 22.918 52.4336 23.7852C51.8242 24.6289 50.9922 25.2969 49.9375 25.7891C48.9062 26.2812 47.7578 26.5273 46.4922 26.5273C45.2969 26.5273 44.1367 26.3398 43.0117 25.9648C41.8867 25.5898 41.0312 25.1797 40.4453 24.7344V20.832C40.8906 21.1367 41.4297 21.4297 42.0625 21.7109C42.6953 21.9922 43.3516 22.2266 44.0312 22.4141C44.7109 22.5781 45.332 22.6602 45.8945 22.6602C46.7852 22.6602 47.4648 22.5078 47.9336 22.2031C48.4258 21.875 48.6719 21.418 48.6719 20.832C48.6719 20.3867 48.4727 20.0352 48.0742 19.7773C47.6758 19.5195 47.0898 19.2617 46.3164 19.0039L44.1367 18.2305C42.7773 17.7852 41.8398 17.1523 41.3242 16.332C40.8086 15.5117 40.5508 14.5391 40.5508 13.4141C40.5508 12.2891 40.832 11.3164 41.3945 10.4961C41.9805 9.65234 42.7891 8.99609 43.8203 8.52734C44.8516 8.03516 46.0352 7.78906 47.3711 7.78906ZM63.1133 3.07812V8.24609H68.0352V11.9727H63.1133V19.6367C63.1133 20.4336 63.2891 21.0664 63.6406 21.5352C64.0156 21.9805 64.5664 22.2031 65.293 22.2031C65.9258 22.2031 66.4648 22.1328 66.9102 21.9922C67.3789 21.8516 67.8125 21.6523 68.2109 21.3945V24.9453C67.7656 25.3906 67.2031 25.7656 66.5234 26.0703C65.8672 26.375 65.0352 26.5273 64.0273 26.5273C62.4336 26.5273 61.1328 26.0234 60.125 25.0156C59.1406 23.9844 58.6484 22.5781 58.6484 20.7969V11.9727H55.4492V9.6875C56.5742 9.28906 57.6055 8.53906 58.543 7.4375C59.5039 6.33594 60.2656 4.88281 60.8281 3.07812H63.1133ZM79.1367 7.78906C80.0977 7.78906 81.0703 8.01172 82.0547 8.45703C83.0391 8.90234 83.8594 9.5 84.5156 10.25V8.24609H88.9805V26H84.5156V23.0117C84 23.9727 83.25 24.8047 82.2656 25.5078C81.2812 26.1875 80.1328 26.5273 78.8203 26.5273C77.3906 26.5273 76.0664 26.1641 74.8477 25.4375C73.6523 24.7109 72.6914 23.6562 71.9648 22.2734C71.2383 20.8906 70.875 19.2148 70.875 17.2461C70.875 15.2773 71.2383 13.5898 71.9648 12.1836C72.7148 10.7773 73.7109 9.69922 74.9531 8.94922C76.2188 8.17578 77.6133 7.78906 79.1367 7.78906ZM80.0508 12.1484C79.1133 12.1484 78.3047 12.3945 77.625 12.8867C76.9688 13.3555 76.4531 13.9766 76.0781 14.75C75.7031 15.5234 75.5156 16.3555 75.5156 17.2461C75.5156 18.582 75.9141 19.7188 76.7109 20.6562C77.5312 21.5938 78.6094 22.0625 79.9453 22.0625C80.7422 22.0625 81.4805 21.8516 82.1602 21.4297C82.8633 21.0078 83.4258 20.4219 83.8477 19.6719C84.293 18.8984 84.5156 17.9727 84.5156 16.8945V14.3633C83.8828 13.6836 83.1914 13.1445 82.4414 12.7461C81.7148 12.3477 80.918 12.1484 80.0508 12.1484ZM109.645 8.24609V18.8281C109.645 20.3984 109.293 21.7578 108.59 22.9062C107.887 24.0312 106.926 24.8984 105.707 25.5078C104.512 26.1172 103.152 26.4219 101.629 26.4219C100.082 26.4219 98.6992 26.1172 97.4805 25.5078C96.2852 24.8984 95.3359 24.0312 94.6328 22.9062C93.9531 21.7578 93.6133 20.3984 93.6133 18.8281V8.24609H98.1133L98.1484 18.0195C98.1484 19.4023 98.4648 20.4336 99.0977 21.1133C99.7305 21.793 100.574 22.1328 101.629 22.1328C102.66 22.1328 103.492 21.793 104.125 21.1133C104.781 20.4336 105.109 19.4023 105.109 18.0195V8.24609H109.645ZM125.422 13.2383C124.672 12.8164 123.887 12.6055 123.066 12.6055C122.035 12.6055 121.18 12.9453 120.5 13.625C119.82 14.2812 119.223 15.1016 118.707 16.0859V26H114.242V8.24609H118.707V11.5859C119.316 10.5312 120.031 9.65234 120.852 8.94922C121.695 8.24609 122.645 7.89453 123.699 7.89453C124.332 7.89453 124.906 8 125.422 8.21094V13.2383ZM135.398 7.78906C136.359 7.78906 137.332 8.01172 138.316 8.45703C139.301 8.90234 140.121 9.5 140.777 10.25V8.24609H145.242V26H140.777V23.0117C140.262 23.9727 139.512 24.8047 138.527 25.5078C137.543 26.1875 136.395 26.5273 135.082 26.5273C133.652 26.5273 132.328 26.1641 131.109 25.4375C129.914 24.7109 128.953 23.6562 128.227 22.2734C127.5 20.8906 127.137 19.2148 127.137 17.2461C127.137 15.2773 127.5 13.5898 128.227 12.1836C128.977 10.7773 129.973 9.69922 131.215 8.94922C132.48 8.17578 133.875 7.78906 135.398 7.78906ZM136.312 12.1484C135.375 12.1484 134.566 12.3945 133.887 12.8867C133.23 13.3555 132.715 13.9766 132.34 14.75C131.965 15.5234 131.777 16.3555 131.777 17.2461C131.777 18.582 132.176 19.7188 132.973 20.6562C133.793 21.5938 134.871 22.0625 136.207 22.0625C137.004 22.0625 137.742 21.8516 138.422 21.4297C139.125 21.0078 139.688 20.4219 140.109 19.6719C140.555 18.8984 140.777 17.9727 140.777 16.8945V14.3633C140.145 13.6836 139.453 13.1445 138.703 12.7461C137.977 12.3477 137.18 12.1484 136.312 12.1484ZM154.691 8.24609V10.7773C155.23 10.0508 155.957 9.37109 156.871 8.73828C157.809 8.10547 158.875 7.78906 160.07 7.78906C161.875 7.78906 163.387 8.39844 164.605 9.61719C165.824 10.8359 166.434 12.6641 166.434 15.1016V26H161.969L161.934 15.6992C161.934 14.5039 161.641 13.6133 161.055 13.0273C160.492 12.4414 159.707 12.1484 158.699 12.1484C157.902 12.1484 157.152 12.4062 156.449 12.9219C155.77 13.4375 155.184 14.0469 154.691 14.75V26H150.227V8.24609H154.691ZM176.973 3.07812V8.24609H181.895V11.9727H176.973V19.6367C176.973 20.4336 177.148 21.0664 177.5 21.5352C177.875 21.9805 178.426 22.2031 179.152 22.2031C179.785 22.2031 180.324 22.1328 180.77 21.9922C181.238 21.8516 181.672 21.6523 182.07 21.3945V24.9453C181.625 25.3906 181.062 25.7656 180.383 26.0703C179.727 26.375 178.895 26.5273 177.887 26.5273C176.293 26.5273 174.992 26.0234 173.984 25.0156C173 23.9844 172.508 22.5781 172.508 20.7969V11.9727H169.309V9.6875C170.434 9.28906 171.465 8.53906 172.402 7.4375C173.363 6.33594 174.125 4.88281 174.688 3.07812H176.973ZM206.523 2.44531C207.625 2.44531 208.703 2.59766 209.758 2.90234C210.812 3.20703 211.762 3.67578 212.605 4.30859C213.473 4.94141 214.152 5.73828 214.645 6.69922C215.16 7.63672 215.418 8.76172 215.418 10.0742C215.418 11.457 215.066 12.6523 214.363 13.6602C213.684 14.6445 212.781 15.418 211.656 15.9805C210.531 16.5195 209.312 16.8359 208 16.9297L216.473 26H210.039L201.848 16.3672V26H196.961V2.44531H206.523ZM201.848 7.01562V12.957C202.41 13.1445 203.031 13.2969 203.711 13.4141C204.414 13.5078 205.117 13.5547 205.82 13.5547C207.227 13.5547 208.34 13.2734 209.16 12.7109C210.004 12.125 210.426 11.3047 210.426 10.25C210.426 9.10156 209.98 8.28125 209.09 7.78906C208.223 7.27344 207.156 7.01562 205.891 7.01562H201.848ZM227.434 7.78906C229.168 7.78906 230.75 8.21094 232.18 9.05469C233.609 9.875 234.758 11 235.625 12.4297C236.516 13.8359 236.961 15.418 236.961 17.1758C236.961 18.9336 236.516 20.5156 235.625 21.9219C234.758 23.3281 233.609 24.4531 232.18 25.2969C230.75 26.1172 229.168 26.5273 227.434 26.5273C225.723 26.5273 224.141 26.1172 222.688 25.2969C221.258 24.4531 220.109 23.3281 219.242 21.9219C218.375 20.5156 217.941 18.9336 217.941 17.1758C217.941 15.418 218.375 13.8359 219.242 12.4297C220.109 11 221.258 9.875 222.688 9.05469C224.141 8.21094 225.723 7.78906 227.434 7.78906ZM227.434 12.1133C226.59 12.1133 225.805 12.3125 225.078 12.7109C224.352 13.1094 223.766 13.6836 223.32 14.4336C222.898 15.1836 222.688 16.0977 222.688 17.1758C222.688 18.2539 222.898 19.168 223.32 19.918C223.766 20.668 224.352 21.2422 225.078 21.6406C225.805 22.0156 226.59 22.2031 227.434 22.2031C228.277 22.2031 229.062 22.0156 229.789 21.6406C230.516 21.2422 231.102 20.668 231.547 19.918C231.992 19.168 232.215 18.2539 232.215 17.1758C232.215 16.0977 231.992 15.1836 231.547 14.4336C231.102 13.6836 230.516 13.1094 229.789 12.7109C229.062 12.3125 228.277 12.1133 227.434 12.1133ZM256.359 8.24609V18.8281C256.359 20.3984 256.008 21.7578 255.305 22.9062C254.602 24.0312 253.641 24.8984 252.422 25.5078C251.227 26.1172 249.867 26.4219 248.344 26.4219C246.797 26.4219 245.414 26.1172 244.195 25.5078C243 24.8984 242.051 24.0312 241.348 22.9062C240.668 21.7578 240.328 20.3984 240.328 18.8281V8.24609H244.828L244.863 18.0195C244.863 19.4023 245.18 20.4336 245.812 21.1133C246.445 21.793 247.289 22.1328 248.344 22.1328C249.375 22.1328 250.207 21.793 250.84 21.1133C251.496 20.4336 251.824 19.4023 251.824 18.0195V8.24609H256.359ZM265.422 0.6875V26H260.957V0.6875H265.422ZM278.141 7.78906C279.875 7.78906 281.363 8.16406 282.605 8.91406C283.871 9.66406 284.832 10.707 285.488 12.043C286.168 13.3555 286.508 14.8789 286.508 16.6133V18.5117H273.641C273.875 19.707 274.461 20.668 275.398 21.3945C276.336 22.1211 277.484 22.4844 278.844 22.4844C280.133 22.4844 281.305 22.2266 282.359 21.7109C283.414 21.1953 284.258 20.668 284.891 20.1289L284.855 24.2773C284.293 24.7695 283.449 25.2734 282.324 25.7891C281.223 26.2812 280.004 26.5273 278.668 26.5273C276.91 26.5273 275.305 26.1289 273.852 25.332C272.422 24.5352 271.273 23.4453 270.406 22.0625C269.562 20.6797 269.141 19.0977 269.141 17.3164C269.141 15.582 269.527 14 270.301 12.5703C271.074 11.1406 272.141 9.99219 273.5 9.125C274.859 8.23438 276.406 7.78906 278.141 7.78906ZM278.035 11.6914C276.934 11.6914 276.008 12.0312 275.258 12.7109C274.508 13.3906 273.992 14.3047 273.711 15.4531H282.219C282.125 14.1875 281.656 13.25 280.812 12.6406C279.969 12.0078 279.043 11.6914 278.035 11.6914ZM296.52 3.07812V8.24609H302.531C303.938 8.24609 305.004 7.84766 305.73 7.05078C306.48 6.23047 307.137 4.96484 307.699 3.25391H309.633V8.24609H314.555V11.9727H309.633V19.6367C309.633 20.4336 309.809 21.0664 310.16 21.5352C310.535 21.9805 311.086 22.2031 311.812 22.2031C312.445 22.2031 312.984 22.1328 313.43 21.9922C313.898 21.8516 314.332 21.6523 314.73 21.3945V24.9453C314.285 25.3906 313.723 25.7656 313.043 26.0703C312.387 26.375 311.555 26.5273 310.547 26.5273C308.953 26.5273 307.652 26.0234 306.645 25.0156C305.66 23.9844 305.168 22.5781 305.168 20.7969V11.9727H296.52V19.6367C296.52 20.4336 296.695 21.0664 297.047 21.5352C297.422 21.9805 297.973 22.2031 298.699 22.2031C299.332 22.2031 299.871 22.1328 300.316 21.9922C300.785 21.8516 301.219 21.6523 301.617 21.3945V24.9453C301.172 25.3906 300.609 25.7656 299.93 26.0703C299.273 26.375 298.441 26.5273 297.434 26.5273C295.84 26.5273 294.539 26.0234 293.531 25.0156C292.547 23.9844 292.055 22.5781 292.055 20.7969V11.9727H288.855V9.6875C289.98 9.28906 291.012 8.53906 291.949 7.4375C292.91 6.33594 293.672 4.88281 294.234 3.07812H296.52ZM326.57 7.78906C328.305 7.78906 329.793 8.16406 331.035 8.91406C332.301 9.66406 333.262 10.707 333.918 12.043C334.598 13.3555 334.938 14.8789 334.938 16.6133V18.5117H322.07C322.305 19.707 322.891 20.668 323.828 21.3945C324.766 22.1211 325.914 22.4844 327.273 22.4844C328.562 22.4844 329.734 22.2266 330.789 21.7109C331.844 21.1953 332.688 20.668 333.32 20.1289L333.285 24.2773C332.723 24.7695 331.879 25.2734 330.754 25.7891C329.652 26.2812 328.434 26.5273 327.098 26.5273C325.34 26.5273 323.734 26.1289 322.281 25.332C320.852 24.5352 319.703 23.4453 318.836 22.0625C317.992 20.6797 317.57 19.0977 317.57 17.3164C317.57 15.582 317.957 14 318.73 12.5703C319.504 11.1406 320.57 9.99219 321.93 9.125C323.289 8.23438 324.836 7.78906 326.57 7.78906ZM326.465 11.6914C325.363 11.6914 324.438 12.0312 323.688 12.7109C322.938 13.3906 322.422 14.3047 322.141 15.4531H330.648C330.555 14.1875 330.086 13.25 329.242 12.6406C328.398 12.0078 327.473 11.6914 326.465 11.6914Z" fill="white"/>
</svg>
