<svg width="327" height="356" viewBox="0 0 327 356" fill="none" xmlns="http://www.w3.org/2000/svg">
<ellipse cx="163.5" cy="192.495" rx="163.5" ry="163.495" fill="#A92C2C"/>
<path d="M327 192.495C327 203.241 325.941 213.961 323.837 224.498L163.5 192.495H327Z" fill="black"/>
<path d="M314.498 255.199C310.377 265.123 305.287 274.616 299.303 283.541L163.5 192.495L314.498 255.199Z" fill="black"/>
<path d="M279.112 308.104C271.513 315.702 263.184 322.533 254.245 328.497L163.5 192.495L279.112 308.104Z" fill="black"/>
<path d="M226.144 343.514C216.218 347.631 205.911 350.76 195.371 352.855L163.5 192.495L226.144 343.514Z" fill="black"/>
<path d="M163.5 355.991C152.754 355.991 142.034 354.931 131.496 352.828L163.5 192.495L163.5 355.991Z" fill="black"/>
<path d="M100.876 343.523C90.9495 339.407 81.453 334.322 72.5242 328.343L163.5 192.495L100.876 343.523Z" fill="black"/>
<path d="M47.888 308.104C40.2895 300.506 33.4586 292.177 27.4944 283.238L163.5 192.495L47.888 308.104Z" fill="black"/>
<path d="M12.2672 254.63C8.18337 244.69 5.08937 234.373 3.03012 223.826L163.5 192.495L12.2672 254.63Z" fill="black"/>
<path d="M0 192.495C9.39441e-07 181.75 1.0594 171.03 3.16283 160.493L163.5 192.495L0 192.495Z" fill="black"/>
<path d="M12.4391 129.944C16.5503 120.016 21.6303 110.518 27.6054 101.586L163.5 192.495L12.4391 129.944Z" fill="black"/>
<path d="M47.888 76.8867C55.4866 69.2884 63.8157 62.4577 72.7546 56.4937L163.5 192.495L47.888 76.8867Z" fill="black"/>
<path d="M101.195 41.3363C111.13 37.2414 121.445 34.136 131.989 32.0651L163.5 192.495L101.195 41.3363Z" fill="black"/>
<path d="M163.5 29C174.246 29 184.966 30.0594 195.504 32.1627L163.5 192.495L163.5 29Z" fill="black"/>
<path d="M225.953 41.3974C235.884 45.502 245.386 50.5756 254.322 56.5447L163.5 192.495L225.953 41.3974Z" fill="black"/>
<path d="M279.112 76.8867C286.71 84.485 293.541 92.8139 299.506 101.753L163.5 192.495L279.112 76.8867Z" fill="black"/>
<path d="M314.29 129.294C318.444 139.204 321.611 149.5 323.744 160.032L163.5 192.495L314.29 129.294Z" fill="black"/>
<line x1="163.5" y1="356" x2="163.5" y2="29" stroke="white" stroke-width="3.67416"/>
<path d="M195.433 353.217L131.657 32.0616" stroke="white" stroke-width="3.67416"/>
<path d="M47.7639 76.7627L279.236 308.228" stroke="white" stroke-width="3.67416"/>
<path d="M299.591 283.426L27.4089 101.565" stroke="white" stroke-width="3.67416"/>
<line y1="192.495" x2="327" y2="192.495" stroke="white" stroke-width="3.67416"/>
<path d="M279.236 76.7627L47.7642 308.228" stroke="white" stroke-width="3.67416"/>
<path d="M72.5671 328.583L254.433 56.4081" stroke="white" stroke-width="3.67416"/>
<path d="M131.568 353.021L195.431 31.9696" stroke="white" stroke-width="3.67416"/>
<path d="M100.864 343.708L226.136 41.2834" stroke="white" stroke-width="3.67416"/>
<path d="M226.136 343.708L100.864 41.2834" stroke="white" stroke-width="3.67416"/>
<path d="M254.504 328.535L72.4956 56.4556" stroke="white" stroke-width="3.67416"/>
<path d="M314.753 255.567L12.2473 130.649" stroke="white" stroke-width="3.67416"/>
<path d="M324.031 224.864L2.96863 161.352" stroke="white" stroke-width="3.67416"/>
<path d="M12.7791 254.417L314.753 129.424" stroke="white" stroke-width="3.67416"/>
<path d="M27.8945 282.704L299.637 101.137" stroke="white" stroke-width="3.67416"/>
<path d="M3.49512 223.8L324.037 160.042" stroke="white" stroke-width="3.67416"/>
<path d="M239.433 192.496C239.433 234.431 205.437 268.426 163.5 268.426C121.564 268.426 87.5675 234.431 87.5675 192.496C87.5675 150.56 121.564 116.565 163.5 116.565C205.437 116.565 239.433 150.56 239.433 192.496Z" fill="black" stroke="white" stroke-width="3.67416"/>
<path d="M273.725 192.495C273.725 253.369 224.376 302.717 163.5 302.717C102.625 302.717 53.2753 253.369 53.2753 192.495C53.2753 131.622 102.625 82.2736 163.5 82.2736C224.376 82.2736 273.725 131.622 273.725 192.495Z" stroke="white" stroke-width="3.67416"/>
<path d="M123 0L163.379 28.5758L205 0V24.8485L163.379 57.1515L123 25.1246V0Z" fill="#FFE923"/>
</svg>
